<?xml version="1.0" encoding="utf-8" standalone="yes"?>
<!DOCTYPE svg PUBLIC "-//W3C//DTD SVG 1.1//EN" "http://www.w3.org/Graphics/SVG/1.1/DTD/svg11.dtd">
<svg width="504" height="648" viewBox="0 0 504 648" style="fill:none;stroke:none;fill-rule:evenodd;clip-rule:evenodd;stroke-linecap:round;stroke-linejoin:round;stroke-miterlimit:1.5;" version="1.1" xmlns="http://www.w3.org/2000/svg" xmlns:xlink="http://www.w3.org/1999/xlink"><style class="text-font-style fontImports" data-font-family="Roboto">@import url('https://fonts.googleapis.com/css2?family=Roboto:wght@400;700&amp;display=block');</style><g id="items" style="isolation: isolate"><g id="blend" style="mix-blend-mode: normal"><g id="g-root-cr_4_cr-small-4_v7d6yu1vrla8f-fill" data-item-order="-129445" transform="translate(62, 338)"><g id="cr_4_cr-small-4_v7d6yu1vrla8f-fill" stroke="none" fill="url(#gradient-fdac61-172712277)"><g><path d="M 10 46C 10 65.882251 26.117749 82 46 82C 65.882251 82 82 65.882251 82 46C 82 26.117749 65.882251 10 46 10C 26.117749 10 10 26.117749 10 46"></path></g></g></g><g id="g-root-sy_4_line_dgpnk61vrl9fs-fill" data-item-order="-129440" transform="translate(108.68096923828125, 433.725341796875)"></g><g id="g-root-cr_3_cr-small-3_90w5fq1vrla81-fill" data-item-order="-129437" transform="translate(206, 482)"><g id="cr_3_cr-small-3_90w5fq1vrla81-fill" stroke="none" fill="url(#gradient-ffed4b-499785973)"><g><path d="M 10 46C 10 65.882251 26.117749 82 46 82C 65.882251 82 82 65.882251 82 46C 82 26.117749 65.882251 10 46 10C 26.117749 10 10 26.117749 10 46"></path></g></g></g><g id="g-root-sy_3_line_5vm9y1vrl7uy-fill" data-item-order="-129432" transform="translate(301.5244140625, 431.2138671875)"></g><g id="g-root-cr_2_cr-small-2_1ur664m1vrl8g3-fill" data-item-order="-129429" transform="translate(349.5849609375, 338)"><g id="cr_2_cr-small-2_1ur664m1vrl8g3-fill" stroke="none" fill="url(#gradient-bceb57-497517668)"><g><path d="M 10 46C 10 65.882251 26.117749 82 46 82C 65.882251 82 82 65.882251 82 46C 82 26.117749 65.882251 10 46 10C 26.117749 10 10 26.117749 10 46"></path></g></g></g><g id="g-root-sy_2_line_1hfpnra1vrla10-fill" data-item-order="-129424" transform="translate(298.9990234375, 239.115478515625)"></g><g id="g-root-cr_1_cr-small-1_18kp4li1vrl7nx-fill" data-item-order="-129421" transform="translate(206, 194)"><g id="cr_1_cr-small-1_18kp4li1vrl7nx-fill" stroke="none" fill="url(#gradient-64edab-240055791)"><g><path d="M 10 46C 10 65.882251 26.117749 82 46 82C 65.882251 82 82 65.882251 82 46C 82 26.117749 65.882251 10 46 10C 26.117749 10 10 26.117749 10 46"></path></g></g></g><g id="g-root-sy_1_line_v98m861vrl98u-fill" data-item-order="-129416" transform="translate(107.62109375, 240.614501953125)"></g><g id="g-root-cr_0_cr-big_hyekxy1vrl7nz-fill" data-item-order="-129379" transform="translate(158, 290)"><defs><linearGradient id="gradient-fdac61-172712277" x2="0" y2="1"><stop offset="0" stop-color="#ffc188"></stop><stop offset="1" stop-color="#fa963a"></stop></linearGradient><linearGradient id="gradient-ffed4b-499785973" x2="0" y2="1"><stop offset="0" stop-color="#fff282"></stop><stop offset="1" stop-color="#ffe714"></stop></linearGradient><linearGradient id="gradient-bceb57-497517668" x2="0" y2="1"><stop offset="0" stop-color="#cff976"></stop><stop offset="1" stop-color="#a8dd38"></stop></linearGradient><linearGradient id="gradient-64edab-240055791" x2="0" y2="1"><stop offset="0" stop-color="#83fac1"></stop><stop offset="1" stop-color="#44e095"></stop></linearGradient><linearGradient id="gradient-cbcbcb-248399021" x2="0" y2="1"><stop offset="0" stop-color="#d9d9d9"></stop><stop offset="1" stop-color="#bcbcbc"></stop></linearGradient></defs><g id="cr_0_cr-big_hyekxy1vrl7nz-fill" stroke="none" fill="url(#gradient-cbcbcb-248399021)"><g><path d="M 10 94C 10.000002 140.391921 47.608083 178.000002 94.000002 178.000002C 140.391921 178.000002 178.000002 140.391921 178.000002 94.000002C 178.000002 47.608083 140.391921 10.000002 94.000002 10.000002C 47.608083 10.000002 10.000002 47.608083 10.000002 94.000002"></path></g></g></g><g id="g-root-tx_pdcacycl_htdwna1w16r64-fill" data-item-order="0" transform="translate(170, 38)"><g id="tx_pdcacycl_htdwna1w16r64-fill" stroke="none" fill="#484848"><g><text style="font: bold 25px Roboto, sans-serif; white-space: pre;" font-weight="bold" font-size="25px" font-family="Roboto, sans-serif"><tspan x="15.17" y="43" dominant-baseline="ideographic">PDCA Cycle</tspan></text></g></g></g><g id="g-root-tx_plan_13zuy6e1w16ryb-fill" data-item-order="0" transform="translate(218, 158)"><g id="tx_plan_13zuy6e1w16ryb-fill" stroke="none" fill="#484848"><g><text style="font: 20px Roboto, sans-serif; white-space: pre;" font-size="20px" font-family="Roboto, sans-serif"><tspan x="14.3" y="34" dominant-baseline="ideographic">Plan</tspan></text></g></g></g><g id="g-root-ic_1_dj7zpi1vro1l8-fill" data-item-order="0" transform="translate(218, 206)"></g><g id="g-root-ic_2_18gxeh21w16tc6-fill" data-item-order="0" transform="translate(212, 314)"></g><g id="g-root-ic_4_dil2ti1vrl8g8-fill" data-item-order="0" transform="translate(74, 350)"></g><g id="g-root-tx_act_1hjfmo61w15cso-fill" data-item-order="0" transform="translate(14, 362)"><g id="tx_act_1hjfmo61w15cso-fill" stroke="none" fill="#484848"><g><text style="font: 20px Roboto, sans-serif; white-space: pre;" font-size="20px" font-family="Roboto, sans-serif"><tspan x="13.94" y="34" dominant-baseline="ideographic">Act</tspan></text></g></g></g><g id="g-root-ic_show_18ityti1vre8le-fill" data-item-order="0" transform="translate(362, 350)"></g><g id="g-root-tx_do_1lqihl21w16sqy-fill" data-item-order="0" transform="translate(434, 362)"><g id="tx_do_1lqihl21w16sqy-fill" stroke="none" fill="#484848"><g><text style="font: 20px Roboto, sans-serif; white-space: pre;" font-size="20px" font-family="Roboto, sans-serif"><tspan x="12" y="34" dominant-baseline="ideographic">Do</tspan></text></g></g></g><g id="g-root-tx_pdcacycl_23w5i1w16tj9-fill" data-item-order="0" transform="translate(182.0009765625, 398.0098876953125)"><g id="tx_pdcacycl_23w5i1w16tj9-fill" stroke="none" fill="#484848"><g><text style="font: 20px Roboto, sans-serif; white-space: pre;" font-size="20px" font-family="Roboto, sans-serif"><tspan x="17.47" y="34" dominant-baseline="ideographic">PDCA Cycle</tspan></text></g></g></g><g id="g-root-ic_view_147dsau1vr78jl-fill" data-item-order="0" transform="translate(218, 494)"></g><g id="g-root-tx_check_m7bzie1w16s5d-fill" data-item-order="0" transform="translate(212, 566)"><g id="tx_check_m7bzie1w16s5d-fill" stroke="none" fill="#484848"><g><text style="font: 20px Roboto, sans-serif; white-space: pre;" font-size="20px" font-family="Roboto, sans-serif"><tspan x="12.38" y="34" dominant-baseline="ideographic">Check</tspan></text></g></g></g><g id="g-root-cr_4_cr-small-4_v7d6yu1vrla8f-stroke" data-item-order="-129445" transform="translate(62, 338)"><g id="cr_4_cr-small-4_v7d6yu1vrla8f-stroke" fill="none" stroke-linecap="round" stroke-linejoin="round" stroke-miterlimit="4" stroke="#484848" stroke-width="2"><g><path d="M 10 46C 10 65.882251 26.117749 82 46 82C 65.882251 82 82 65.882251 82 46C 82 26.117749 65.882251 10 46 10C 26.117749 10 10 26.117749 10 46"></path></g></g></g><g id="g-root-sy_4_line_dgpnk61vrl9fs-stroke" data-item-order="-129440" transform="translate(108.68096923828125, 433.725341796875)"><g id="sy_4_line_dgpnk61vrl9fs-stroke" fill="none" stroke-linecap="round" stroke-linejoin="round" stroke-miterlimit="4" stroke="#484848" stroke-width="2"><g><path d="M 10.819031 11.804688C 25.939031 44.314688 52.639031 70.344687 85.639031 84.584688"></path><path d="M 19.419031 14.204688L 10.719031 11.304688L 7.719031 20.104688" stroke-dasharray="none"></path></g></g></g><g id="g-root-cr_3_cr-small-3_90w5fq1vrla81-stroke" data-item-order="-129437" transform="translate(206, 482)"><g id="cr_3_cr-small-3_90w5fq1vrla81-stroke" fill="none" stroke-linecap="round" stroke-linejoin="round" stroke-miterlimit="4" stroke="#484848" stroke-width="2"><g><path d="M 10 46C 10 65.882251 26.117749 82 46 82C 65.882251 82 82 65.882251 82 46C 82 26.117749 65.882251 10 46 10C 26.117749 10 10 26.117749 10 46"></path></g></g></g><g id="g-root-sy_3_line_5vm9y1vrl7uy-stroke" data-item-order="-129432" transform="translate(301.5244140625, 431.2138671875)"><g id="sy_3_line_5vm9y1vrl7uy-stroke" fill="none" stroke-linecap="round" stroke-linejoin="round" stroke-miterlimit="4" stroke="#484848" stroke-width="2"><g><path d="M 11.825562 85.676094C 44.765562 70.506094 71.105562 43.446094 85.345562 9.996094"></path><path d="M 14.325562 77.096094L 11.325562 85.796094L 20.025562 88.796094" stroke-dasharray="none"></path></g></g></g><g id="g-root-cr_2_cr-small-2_1ur664m1vrl8g3-stroke" data-item-order="-129429" transform="translate(349.5849609375, 338)"><g id="cr_2_cr-small-2_1ur664m1vrl8g3-stroke" fill="none" stroke-linecap="round" stroke-linejoin="round" stroke-miterlimit="4" stroke="#484848" stroke-width="2"><g><path d="M 10 46C 10 65.882251 26.117749 82 46 82C 65.882251 82 82 65.882251 82 46C 82 26.117749 65.882251 10 46 10C 26.117749 10 10 26.117749 10 46"></path></g></g></g><g id="g-root-sy_2_line_1hfpnra1vrla10-stroke" data-item-order="-129424" transform="translate(298.9990234375, 239.115478515625)"><g id="sy_2_line_1hfpnra1vrla10-stroke" fill="none" stroke-linecap="round" stroke-linejoin="round" stroke-miterlimit="4" stroke="#484848" stroke-width="2"><g><path d="M 85.730977 82.814517C 70.410977 50.144517 43.360977 24.064517 10.000977 10.004517"></path><path d="M 77.200977 80.404517L 85.900977 83.304517L 88.800977 74.604517" stroke-dasharray="none"></path></g></g></g><g id="g-root-cr_1_cr-small-1_18kp4li1vrl7nx-stroke" data-item-order="-129421" transform="translate(206, 194)"><g id="cr_1_cr-small-1_18kp4li1vrl7nx-stroke" fill="none" stroke-linecap="round" stroke-linejoin="round" stroke-miterlimit="4" stroke="#484848" stroke-width="2"><g><path d="M 10 46C 10 65.882251 26.117749 82 46 82C 65.882251 82 82 65.882251 82 46C 82 26.117749 65.882251 10 46 10C 26.117749 10 10 26.117749 10 46"></path></g></g></g><g id="g-root-sy_1_line_v98m861vrl98u-stroke" data-item-order="-129416" transform="translate(107.62109375, 240.614501953125)"><g id="sy_1_line_v98m861vrl98u-stroke" fill="none" stroke-linecap="round" stroke-linejoin="round" stroke-miterlimit="4" stroke="#484848" stroke-width="2"><g><path d="M 82.588901 10.8255C 50.098901 26.0655 24.128901 52.8955 9.998901 85.9955"></path><path d="M 80.198901 19.4255L 83.098901 10.7255L 74.298901 7.8255" stroke-dasharray="none"></path></g></g></g><g id="g-root-cr_0_cr-big_hyekxy1vrl7nz-stroke" data-item-order="-129379" transform="translate(158, 290)"><g id="cr_0_cr-big_hyekxy1vrl7nz-stroke" fill="none" stroke-linecap="round" stroke-linejoin="round" stroke-miterlimit="4" stroke="#484848" stroke-width="2"><g><path d="M 10 94C 10.000002 140.391921 47.608083 178.000002 94.000002 178.000002C 140.391921 178.000002 178.000002 140.391921 178.000002 94.000002C 178.000002 47.608083 140.391921 10.000002 94.000002 10.000002C 47.608083 10.000002 10.000002 47.608083 10.000002 94.000002"></path></g></g></g><g id="g-root-tx_pdcacycl_htdwna1w16r64-stroke" data-item-order="0" transform="translate(170, 38)"></g><g id="g-root-tx_plan_13zuy6e1w16ryb-stroke" data-item-order="0" transform="translate(218, 158)"></g><g id="g-root-ic_1_dj7zpi1vro1l8-stroke" data-item-order="0" transform="translate(218, 206)"><g id="ic_1_dj7zpi1vro1l8-stroke" fill="none" stroke-linecap="round" stroke-linejoin="round" stroke-miterlimit="4" stroke="#484848" stroke-width="2"><g><path d="M 15 11L 53 11C 53 11 57 11 57 15L 57 53C 57 53 57 57 53 57L 15 57C 15 57 11 57 11 53L 11 15C 11 15 11 11 15 11M 11 26L 17.992001 26M 11 45L 21 45M 42 11L 42 20M 44 32L 44 41M 26 11L 26 20M 21 45C 21 47.761425 23.238577 50 26 50C 28.761423 50 31 47.761425 31 45C 31 42.238575 28.761423 40 26 40C 23.238577 40 21 42.238575 21 45M 46 32L 26 32L 17.992001 26L 26 20L 46 20L 46 32ZM 39.5 41L 47.5 41L 47.5 49L 39.5 49ZM 31 45L 39.5 45M 47.5 45L 57 45M 44 49L 44 57M 26 32L 26 40M 26 50L 26 57M 46 26L 57 26"></path></g></g></g><g id="g-root-ic_2_18gxeh21w16tc6-stroke" data-item-order="0" transform="translate(212, 314)"><g id="ic_2_18gxeh21w16tc6-stroke" fill="none" stroke-linecap="round" stroke-linejoin="round" stroke-miterlimit="4" stroke="#484848" stroke-width="2"><g><path d="M 23.125 45.625L 23.125 56.875L 11.875 56.875M 56.875 34.375L 56.875 23.125L 68.125 23.125M 57.625 23.125C 61.875 27.625 64.375 33.375 64.375 40.125C 64.375 53.625 53.375 64.625 39.875 64.625C 36.625 64.625 33.37505 63.875 30.37505 62.875M 22.375 56.875C 18.125 52.375 15.625 46.625 15.625 39.875C 15.625 26.37505 26.625 15.37505 40.125 15.37505C 43.375 15.37505 46.625 16.12505 49.625 17.12505M 39.875 41.375C 39.18475 41.375 38.625 40.815498 38.625 40.125C 38.625 39.43475 39.18475 38.875 39.875 38.875M 39.874748 41.375C 40.564999 41.375 41.124748 40.815498 41.124748 40.125C 41.124748 39.43475 40.564999 38.875 39.874748 38.875M 10 10M 42.125 29.625126L 42.875 32.125126C 43.125 33.125122 44.125 33.625126 44.875 33.375126L 47.375 32.875126C 49.625 32.375126 51.125 35.125 49.625 36.875L 47.875 38.875C 47.125 39.625 47.125 40.625 47.875 41.375L 49.625 43.375C 51.125 45.125 49.625 47.875 47.375 47.375L 44.875 46.875C 43.875 46.625 43.125 47.125 42.875 48.125L 42.125 50.625C 41.375 52.875 38.375 52.875 37.625 50.625L 36.875 48.125C 36.625 47.125 35.625 46.625 34.874977 46.875L 32.374977 47.375C 30.124973 47.875 28.624975 45.125 30.124973 43.375L 31.874977 41.375C 32.624973 40.625 32.624973 39.625 31.874977 38.875L 30.124973 36.875C 28.624975 35.125 30.124973 32.375126 32.374977 32.875126L 34.874977 33.375126C 35.875 33.625126 36.625 33.125122 36.875 32.125126L 37.625 29.625126C 38.375 27.375124 41.625 27.375124 42.125 29.625126Z"></path></g></g></g><g id="g-root-ic_4_dil2ti1vrl8g8-stroke" data-item-order="0" transform="translate(74, 350)"><g id="ic_4_dil2ti1vrl8g8-stroke" fill="none" stroke-linecap="round" stroke-linejoin="round" stroke-miterlimit="4" stroke="#484848" stroke-width="2"><g><path d="M 55.858002 56.313999C 54.405674 52.521877 50.747829 50.033264 46.687328 50.074734C 42.626823 50.116207 39.020569 52.679008 37.645996 56.5M 53.610001 40.327999C 53.652206 42.793461 52.361061 45.08992 50.232666 46.334995C 48.104267 47.58007 45.469734 47.58007 43.341339 46.334995C 41.212944 45.08992 39.921795 42.793461 39.964001 40.328003M 49.155998 31.934C 52.374481 32.974796 54.555313 35.97142 54.556004 39.354004M 38.954002 40.327999L 38.954002 39.354C 38.954025 35.773403 41.391876 32.652691 44.866001 31.786001M 37.003998 40.327999L 56.5 40.327999M 32.639999 45.360001L 31.184 43.745998C 30.608044 43.109283 29.789566 42.745998 28.931 42.745998C 28.072433 42.745998 27.253956 43.109283 26.677999 43.745998L 25.220001 45.360001C 24.359104 46.311974 22.992567 46.619717 21.806702 46.128674C 20.620838 45.63763 19.871889 44.453907 19.936001 43.171997L 20.048 41C 20.09153 40.142414 19.769863 39.306503 19.16268 38.699318C 18.555494 38.092133 17.719585 37.77047 16.862 37.813999L 14.690001 37.924C 13.406998 37.990547 12.221166 37.241806 11.729657 36.054817C 11.238149 34.867828 11.547527 33.499947 12.502 32.639999L 14.116 31.184C 14.752718 30.608044 15.116002 29.789566 15.116002 28.931C 15.116002 28.072433 14.752718 27.253956 14.116 26.677999L 12.502 25.222C 11.54838 24.361418 11.239553 22.993824 11.730824 21.806959C 12.222095 20.620096 13.407133 19.870846 14.690001 19.936001L 16.862 20.048C 17.719412 20.090895 18.554945 19.769024 19.161983 19.161983C 19.769024 18.554945 20.090895 17.719412 20.048 16.862L 19.936001 14.690001C 19.871889 13.408092 20.620838 12.224367 21.806702 11.733324C 22.992567 11.242281 24.359104 11.550026 25.219999 12.502L 26.677999 14.116C 27.253956 14.752718 28.072433 15.116002 28.931 15.116002C 29.789566 15.116002 30.608044 14.752718 31.184 14.116L 32.639999 12.502C 33.499947 11.547527 34.867828 11.238149 36.054817 11.729657C 37.241806 12.221166 37.990547 13.406998 37.924 14.690001L 37.813999 16.862C 37.77047 17.719585 38.092133 18.555494 38.699318 19.16268C 39.306503 19.769863 40.142414 20.09153 41 20.048L 43.172001 19.936001C 44.454865 19.870846 45.639904 20.620096 46.131176 21.806959C 46.622444 22.993824 46.313618 24.361418 45.360001 25.222L 43.745998 26.677999M 21.958 28.93C 21.958 32.780533 25.079472 35.902 28.930002 35.902C 32.780533 35.902 35.902 32.780533 35.902 28.930002C 35.902 25.079472 32.780533 21.958 28.930002 21.958C 25.079472 21.958 21.958 25.079472 21.958 28.930002M 48.374001 35.417999L 45.374001 35.417999L 44.703999 30.695999C 44.663193 30.407501 44.750244 30.115553 44.942387 29.896513C 45.134525 29.677473 45.412643 29.553129 45.703999 29.556L 48.056 29.556C 48.347355 29.553129 48.625473 29.677473 48.817616 29.896513C 49.009754 30.115553 49.096806 30.407501 49.056 30.695999Z"></path></g></g></g><g id="g-root-tx_act_1hjfmo61w15cso-stroke" data-item-order="0" transform="translate(14, 362)"></g><g id="g-root-ic_show_18ityti1vre8le-stroke" data-item-order="0" transform="translate(362, 350)"><g id="ic_show_18ityti1vre8le-stroke" fill="none" stroke-linecap="round" stroke-linejoin="round" stroke-miterlimit="4" stroke="#484848" stroke-width="2"><g><path d="M 44 51.700001C 43.2449 52.525379 42.178669 52.996845 41.059998 53L 37.5 53M 13 41L 13 21C 13 18.790861 14.790861 17 17 17L 22 17M 36 17L 41 17C 43.209141 17 45 18.790861 45 21L 45 38.799999M 32.459999 13C 31.744404 11.766392 30.426138 11.007088 29 11.007088C 27.573862 11.007088 26.255596 11.766392 25.540001 13L 24 13C 22.895432 13 22 13.895431 22 15L 22 19C 22 20.104568 22.895432 21 24 21L 34 21C 35.104568 21 36 20.104568 36 19L 36 15C 36 13.895431 35.104568 13 34 13ZM 11 57L 11 51.66C 11 47.981781 13.981783 45 17.66 45L 21 45L 21 36C 21 34.343147 22.343147 33 24 33C 25.656855 33 27 34.343147 27 36L 27 50L 29.58 47.84C 30.473721 46.81842 32.019318 46.696594 33.06205 47.56554C 34.104786 48.434486 34.263672 49.976711 33.419998 51.040001L 28.459999 57.040001M 49.419998 42.580002L 46.419998 39.580002C 45.514252 38.63559 44.014404 38.604252 43.07 39.509998C 42.125591 40.415749 42.094254 41.915592 43 42.859997C 47.419998 47.439999 46.299999 49.700001 50 53.419998L 54 57M 45 28L 53.580002 37.580002C 54.489838 38.485443 55.000938 39.7164 55.000004 41L 55 44C 55.043949 45.563087 55.775902 47.026993 57.000004 48.000004"></path></g></g></g><g id="g-root-tx_do_1lqihl21w16sqy-stroke" data-item-order="0" transform="translate(434, 362)"></g><g id="g-root-tx_pdcacycl_23w5i1w16tj9-stroke" data-item-order="0" transform="translate(182.0009765625, 398.0098876953125)"></g><g id="g-root-ic_view_147dsau1vr78jl-stroke" data-item-order="0" transform="translate(218, 494)"><g id="ic_view_147dsau1vr78jl-stroke" fill="none" stroke-linecap="round" stroke-linejoin="round" stroke-miterlimit="4" stroke="#484848" stroke-width="2"><g><path d="M 28.52 45.063999L 16 45.063999C 13.790861 45.063999 12 43.27314 12 41.063999L 12 16.048C 12 13.838861 13.790861 12.048 16 12.048L 46.018002 12.048C 48.227139 12.048 50.018002 13.838861 50.018002 16.048L 50.018002 29.666M 12 19.860001L 50.02 19.860001M 12 36.468002L 28.736 36.468002M 12 28.177999L 34.021999 28.177999M 27.530001 19.860001L 27.530001 45.063999M 38.662003 19.860001L 38.662003 28.177999M 42.155998 51.632C 47.618256 51.518284 51.955372 47.000343 51.846001 41.538002C 51.955372 36.075653 47.618256 31.557716 42.155998 31.444C 36.693745 31.557716 32.356628 36.075653 32.466 41.538002C 32.356628 47.000343 36.693745 51.518284 42.155998 51.632ZM 56 55.953999L 49 48.672001"></path></g></g></g><g id="g-root-tx_check_m7bzie1w16s5d-stroke" data-item-order="0" transform="translate(212, 566)"></g></g></g></svg>