<?xml version="1.0" encoding="utf-8" standalone="yes"?>
<!DOCTYPE svg PUBLIC "-//W3C//DTD SVG 1.1//EN" "http://www.w3.org/Graphics/SVG/1.1/DTD/svg11.dtd">
<svg width="768" height="732" viewBox="0 0 768 732" style="fill:none;stroke:none;fill-rule:evenodd;clip-rule:evenodd;stroke-linecap:round;stroke-linejoin:round;stroke-miterlimit:1.5;" version="1.1" xmlns="http://www.w3.org/2000/svg" xmlns:xlink="http://www.w3.org/1999/xlink"><style class="text-font-style fontImports" data-font-family="Roboto">@import url('https://fonts.googleapis.com/css2?family=Roboto:wght@400;700&amp;display=block');</style><g id="items" style="isolation: isolate"><g id="blend" style="mix-blend-mode: normal"><g id="g-root-cp_4_g-4_8ydq5y1unk2rr-fill" data-item-order="-457910" transform="translate(26, 386)"><g id="cp_4_g-4_8ydq5y1unk2rr-fill" stroke="none" fill="#fff2e5"><g><path d="M 10 10L 250 10C 250 63.5139 288.9212 107.9373 340 116.5067L 340 134.724C 284.8176 126.8308 241.1692 83.1824 233.276 28L 10 28L 10 10Z"></path></g></g></g><g id="g-root-cp_3_g-3_1uonquu1unk0zt-fill" data-item-order="-457906" transform="translate(368, 398)"><g id="cp_3_g-3_1uonquu1unk0zt-fill" stroke="none" fill="#ffeceb"><g><path d="M 10 274L 28 274L 28 123.436C 88.0094 117.7664 135.7664 70.0094 141.436 10L 123.3409 10C 117.3715 63.9994 71.5906 106 16 106C 13.9867 106 11.9862 105.9449 10 105.8362L 10 274Z"></path></g></g></g><g id="g-root-cp_2_g-2_1q8u8qe1unk1s3-fill" data-item-order="-457902" transform="translate(386, 260.564453125)"><g id="cp_2_g-2_1q8u8qe1unk1s3-fill" stroke="none" fill="#e3fff2"><g><path d="M 106 135.436C 106 79.8454 63.9994 34.0645 10 28.0952L 10 10C 67.9952 15.4793 114.5468 60.2681 122.724 117.436L 346 117.436L 346 135.436L 106 135.436Z"></path></g></g></g><g id="g-root-cp_1_g-1_1hd78hi1unk2kt-fill" data-item-order="-457898" transform="translate(248.56396484375, 110)"><g id="cp_1_g-1_1hd78hi1unk2kt-fill" stroke="none" fill="#edf4ff"><g><path d="M 135.436 10L 135.436 178C 79.8454 178 34.0645 220.0006 28.0952 274L 10 274C 15.4793 216.0047 60.2681 169.4532 117.436 161.276L 117.436 10L 135.436 10Z"></path></g></g></g><g id="g-root-tx_swot_1cxdqd21unk3d3-fill" data-item-order="0" transform="translate(242, 38)"><g id="tx_swot_1cxdqd21unk3d3-fill" stroke="none" fill="#484848"><g><text style="font: bold 25px Roboto, sans-serif; white-space: pre;" font-weight="bold" font-size="25px" font-family="Roboto, sans-serif"><tspan x="14.02" y="43" dominant-baseline="ideographic">汽车行业的 SWOT 分析</tspan></text></g></g></g><g id="g-root-tx__93diuu1unlgcg-fill" data-item-order="0" transform="translate(26, 182)"><g id="tx__93diuu1unlgcg-fill" stroke="none" fill="#4e88e7"><g><text style="font: bold 20px Roboto, sans-serif; white-space: pre;" font-weight="bold" font-size="20px" font-family="Roboto, sans-serif"><tspan x="20" y="46" dominant-baseline="ideographic">高效节能发动机技术</tspan></text></g></g></g><g id="g-root-tx__qu129i1unlh52-fill" data-item-order="0" transform="translate(531, 182)"><g id="tx__qu129i1unlh52-fill" stroke="none" fill="#3cc583"><g><text style="font: bold 20px Roboto, sans-serif; white-space: pre;" font-weight="bold" font-size="20px" font-family="Roboto, sans-serif"><tspan x="12" y="46" dominant-baseline="ideographic">新能源汽车市场增长</tspan></text></g></g></g><g id="g-root-ic_14_zmjp2u1unk1s8-fill" data-item-order="0" transform="translate(230, 218)"></g><g id="g-root-ic_2_1ha2v1y1unlfk9-fill" data-item-order="0" transform="translate(471, 218)"></g><g id="g-root-tx__1ly0jau1unlfd5-fill" data-item-order="0" transform="translate(62, 242)"><g id="tx__1ly0jau1unlfd5-fill" stroke="none" fill="#484848"><g><text style="font: 15px Roboto, sans-serif; white-space: pre;" font-size="15px" font-family="Roboto, sans-serif"><tspan x="14" y="31" dominant-baseline="ideographic">高效节能发动机技术提</tspan><tspan x="29" y="49" dominant-baseline="ideographic">升汽车企业的竞争优</tspan><tspan x="134" y="67" dominant-baseline="ideographic">势。</tspan></text></g></g></g><g id="g-root-tx__hye20m1unlhxr-fill" data-item-order="0" transform="translate(531, 242)"><g id="tx__hye20m1unlhxr-fill" stroke="none" fill="#484848"><g><text style="font: 15px Roboto, sans-serif; white-space: pre;" font-size="15px" font-family="Roboto, sans-serif"><tspan x="12" y="31" dominant-baseline="ideographic">新能源汽车市场增长为</tspan><tspan x="12" y="49" dominant-baseline="ideographic">传统企业带来转型机</tspan><tspan x="12" y="67" dominant-baseline="ideographic">会。</tspan></text></g></g></g><g id="g-root-tx__18kolo61unlhxo-fill" data-item-order="0" transform="translate(134, 494)"><g id="tx__18kolo61unlhxo-fill" stroke="none" fill="#de8431"><g><text style="font: bold 20px Roboto, sans-serif; white-space: pre;" font-weight="bold" font-size="20px" font-family="Roboto, sans-serif"><tspan x="12" y="34" dominant-baseline="ideographic">油价波动</tspan></text></g></g></g><g id="g-root-ic_decr_18mk0xi1unlgy2-fill" data-item-order="0" transform="translate(230, 506)"></g><g id="g-root-ic_arm_hx53ue1unmtxf-fill" data-item-order="0" transform="translate(470, 506)"></g><g id="g-root-tx__91i3li1unlhc2-fill" data-item-order="0" transform="translate(530, 494)"><g id="tx__91i3li1unlhc2-fill" stroke="none" fill="#e55753"><g><text style="font: bold 20px Roboto, sans-serif; white-space: pre;" font-weight="bold" font-size="20px" font-family="Roboto, sans-serif"><tspan x="12" y="34" dominant-baseline="ideographic">陈旧的生产设备</tspan></text></g></g></g><g id="g-root-tx__v9ukdy1unlgct-fill" data-item-order="0" transform="translate(62, 530)"><g id="tx__v9ukdy1unlgct-fill" stroke="none" fill="#484848"><g><text style="font: 15px Roboto, sans-serif; white-space: pre;" font-size="15px" font-family="Roboto, sans-serif"><tspan x="14" y="28" dominant-baseline="ideographic">油价波动威胁燃油汽车</tspan><tspan x="74" y="46" dominant-baseline="ideographic">的市场份额。</tspan></text></g></g></g><g id="g-root-tx__1hgblx21unlh4z-fill" data-item-order="0" transform="translate(530, 530)"><g id="tx__1hgblx21unlh4z-fill" stroke="none" fill="#484848"><g><text style="font: 15px Roboto, sans-serif; white-space: pre;" font-size="15px" font-family="Roboto, sans-serif"><tspan x="12" y="28" dominant-baseline="ideographic">陈旧的生产设备导致供应商</tspan><tspan x="12" y="46" dominant-baseline="ideographic">无法满足订单需求。</tspan></text></g></g></g><g id="g-root-cp_4_g-4_8ydq5y1unk2rr-stroke" data-item-order="-457910" transform="translate(26, 386)"><g id="cp_4_g-4_8ydq5y1unk2rr-stroke" fill="none" stroke-linecap="round" stroke-linejoin="round" stroke-miterlimit="4" stroke="#de8431" stroke-width="2"><g><path d="M 10 10L 250 10C 250 63.5139 288.9212 107.9373 340 116.5067L 340 134.724C 284.8176 126.8308 241.1692 83.1824 233.276 28L 10 28L 10 10Z"></path></g></g></g><g id="g-root-cp_3_g-3_1uonquu1unk0zt-stroke" data-item-order="-457906" transform="translate(368, 398)"><g id="cp_3_g-3_1uonquu1unk0zt-stroke" fill="none" stroke-linecap="round" stroke-linejoin="round" stroke-miterlimit="4" stroke="#e55753" stroke-width="2"><g><path d="M 10 274L 28 274L 28 123.436C 88.0094 117.7664 135.7664 70.0094 141.436 10L 123.3409 10C 117.3715 63.9994 71.5906 106 16 106C 13.9867 106 11.9862 105.9449 10 105.8362L 10 274Z"></path></g></g></g><g id="g-root-cp_2_g-2_1q8u8qe1unk1s3-stroke" data-item-order="-457902" transform="translate(386, 260.564453125)"><g id="cp_2_g-2_1q8u8qe1unk1s3-stroke" fill="none" stroke-linecap="round" stroke-linejoin="round" stroke-miterlimit="4" stroke="#3cc583" stroke-width="2"><g><path d="M 106 135.436C 106 79.8454 63.9994 34.0645 10 28.0952L 10 10C 67.9952 15.4793 114.5468 60.2681 122.724 117.436L 346 117.436L 346 135.436L 106 135.436Z"></path></g></g></g><g id="g-root-cp_1_g-1_1hd78hi1unk2kt-stroke" data-item-order="-457898" transform="translate(248.56396484375, 110)"><g id="cp_1_g-1_1hd78hi1unk2kt-stroke" fill="none" stroke-linecap="round" stroke-linejoin="round" stroke-miterlimit="4" stroke="#4e88e7" stroke-width="2"><g><path d="M 135.436 10L 135.436 178C 79.8454 178 34.0645 220.0006 28.0952 274L 10 274C 15.4793 216.0047 60.2681 169.4532 117.436 161.276L 117.436 10L 135.436 10Z"></path></g></g></g><g id="g-root-tx_swot_1cxdqd21unk3d3-stroke" data-item-order="0" transform="translate(242, 38)"></g><g id="g-root-tx__93diuu1unlgcg-stroke" data-item-order="0" transform="translate(26, 182)"></g><g id="g-root-tx__qu129i1unlh52-stroke" data-item-order="0" transform="translate(531, 182)"></g><g id="g-root-ic_14_zmjp2u1unk1s8-stroke" data-item-order="0" transform="translate(230, 218)"><g id="ic_14_zmjp2u1unk1s8-stroke" fill="none" stroke-linecap="round" stroke-linejoin="round" stroke-miterlimit="4" stroke="#4e88e7" stroke-width="2"><g><path d="M 18.128 14.91L 16.799999 16.77C 15.258574 15.668745 13.116256 16.025574 12.015 17.567001C 10.913744 19.108427 11.270574 21.250744 12.812 22.352001L 11.482 24.212L 17.066 28.200001L 23.709999 18.896ZM 44.290001 18.896L 23.709999 18.896L 17.066 28.200001L 23.214001 48.152C 23.509094 49.110577 24.395027 49.764481 25.397999 49.763996L 42.598 49.764C 43.601288 49.764065 44.487576 49.1105 44.784004 48.152004L 50.933998 28.200001ZM 55.984001 17.566C 54.883778 16.024137 52.742008 15.665982 51.200001 16.765999L 49.872002 14.906L 44.290001 18.896L 50.933998 28.200001L 56.515999 24.212L 55.186001 22.352001C 56.728451 21.25104 57.0858 19.107853 55.984001 17.566ZM 22.084 44.486L 17.181999 46C 16.578365 46.185989 15.938225 45.847565 15.752001 45.244003L 13.059999 36.5C 12.873856 35.896957 13.211244 35.25708 13.814 35.07L 18.718 33.559998M 45.916 44.486L 50.818001 46C 51.421638 46.185989 52.061779 45.847565 52.248005 45.244003L 54.939999 36.503998C 55.125988 35.900368 54.787563 35.260223 54.184002 35.074001L 49.282001 33.563999M 27.139999 18.896L 27.139999 14.91M 34 18.896L 34 14.91M 40.860001 18.896L 40.860001 14.91M 27.139999 53.09L 27.139999 49.764M 34 53.09L 34 49.764M 40.860001 53.09L 40.860001 49.764M 16.799999 16.77L 12.812 22.352001M 51.200001 16.77L 55.186001 22.352001M 31.874001 34.330002C 31.874001 35.504158 32.825844 36.456001 34 36.456001C 35.174156 36.456001 36.125999 35.504158 36.125999 34.330002C 36.125999 33.155842 35.174156 32.204002 34 32.204002C 32.825844 32.204002 31.874001 33.155842 31.874001 34.330002M 35.799999 26.108L 36.426003 28.166C 36.636452 28.877569 37.36554 29.301336 38.087997 29.132L 40.176003 28.648001C 40.98735 28.466465 41.822319 28.834694 42.235405 29.556221C 42.648491 30.277746 42.54332 31.184225 41.976002 31.792002L 40.515999 33.365997C 40.011623 33.910477 40.011623 34.751526 40.515999 35.295998L 41.975998 36.870003C 42.541477 37.478016 42.645542 38.383236 42.232796 39.103706C 41.820045 39.824181 40.986523 40.192272 40.176003 40.012001L 38.087997 39.529999C 37.366127 39.360493 36.637291 39.783234 36.426003 40.493999L 35.799999 42.551998C 35.560173 43.34898 34.826283 43.894531 33.994003 43.894531C 33.16172 43.894531 32.427834 43.34898 32.188004 42.552002L 31.562 40.493999C 31.350681 39.782288 30.620531 39.359291 29.898001 39.529999L 27.812 40.012001C 27.00148 40.192272 26.167955 39.824181 25.755209 39.103706C 25.342461 38.383236 25.446527 37.478016 26.012001 36.870003L 27.472 35.295998C 27.976377 34.751526 27.976377 33.910477 27.472 33.365997L 26.011999 31.792C 25.447765 31.183403 25.344362 30.278797 25.756706 29.558571C 26.169048 28.838346 27.001505 28.469536 27.812 28.647999L 29.898001 29.132C 30.62112 29.302538 31.351521 28.878519 31.562 28.166L 32.200001 26.108C 32.446205 25.320885 33.175278 24.785025 34 24.785025C 34.824722 24.785025 35.553799 25.320885 35.800003 26.108002Z"></path></g></g></g><g id="g-root-ic_2_1ha2v1y1unlfk9-stroke" data-item-order="0" transform="translate(471, 218)"><g id="ic_2_1ha2v1y1unlfk9-stroke" fill="none" stroke-linecap="round" stroke-linejoin="round" stroke-miterlimit="4" stroke="#3cc583" stroke-width="2"><g><path d="M 56.5 42.257999L 56.5 15.903999C 56.5 13.927925 54.898075 12.326 52.921997 12.326L 42.188 12.326C 40.212708 12.327105 38.612 13.928706 38.612 15.903999L 38.612 23.422001M 48.102001 16.798L 45.618 21.27L 49.344002 21.27L 46.860001 25.742001M 49.066002 50.307999C 50.548332 50.307999 51.75 49.106331 51.75 47.624001C 51.750542 45.90588 51.067684 44.258102 49.852001 43.043999L 46.383999 39.573997L 16.866001 39.573997L 13.4 43.043999C 12.184316 44.258102 11.501458 45.90588 11.502 47.624001C 11.502 49.106331 12.703668 50.307999 14.186 50.307999ZM 12.082 44.942001L 19.549999 44.942001M 51.167999 44.942001L 43.700001 44.942001M 16.866001 39.573997L 19.911999 31.452C 20.501827 29.882141 22.002995 28.842319 23.68 28.841999L 39.568001 28.841999C 41.245556 28.842064 42.74744 29.881828 43.337997 31.452L 46.383999 39.573997M 14.184 50.307999L 14.184 53C 14.454355 54.69566 16.014812 55.87571 17.720001 55.674C 19.425915 55.876865 20.987635 54.696526 21.257999 53L 21.257999 50.307999ZM 42.080002 50.307999L 42.080002 53C 42.346554 54.699757 43.909428 55.884506 45.618 55.681999C 47.326572 55.884506 48.88945 54.699757 49.156002 53L 49.155998 50.307999Z"></path></g></g></g><g id="g-root-tx__1ly0jau1unlfd5-stroke" data-item-order="0" transform="translate(62, 242)"></g><g id="g-root-tx__hye20m1unlhxr-stroke" data-item-order="0" transform="translate(531, 242)"></g><g id="g-root-tx__18kolo61unlhxo-stroke" data-item-order="0" transform="translate(134, 494)"></g><g id="g-root-ic_decr_18mk0xi1unlgy2-stroke" data-item-order="0" transform="translate(230, 506)"><g id="ic_decr_18mk0xi1unlgy2-stroke" fill="none" stroke-linecap="round" stroke-linejoin="round" stroke-miterlimit="4" stroke="#de8431" stroke-width="2"><g><path d="M 57 48.001999L 57 57.001999L 48 57.001999M 57 57L 46.900002 46.900002C 45.729542 45.729961 44.011681 45.296082 42.426003 45.770004L 31 48.824001C 29.448034 49.239677 27.792191 48.795986 26.656 47.66L 15 36M 27.862 40.884003C 34.179153 40.092514 39.308472 35.39946 40.656902 29.177359C 42.005333 22.955254 39.279068 16.559771 33.856346 13.224068C 28.433626 9.888364 21.495943 10.339223 16.550564 14.348718C 11.605183 18.358212 9.729603 25.052755 11.872 31.048M 17 27.997999L 35 27.997999M 21 33.998001L 21 17.998001L 31 33.998001L 31 17.998001"></path></g></g></g><g id="g-root-ic_arm_hx53ue1unmtxf-stroke" data-item-order="0" transform="translate(470, 506)"><g id="ic_arm_hx53ue1unmtxf-stroke" fill="none" stroke-linecap="round" stroke-linejoin="round" stroke-miterlimit="4" stroke="#e55753" stroke-width="2"><g><path d="M 36.5 44.5L 36.5 34.5L 24.5 41L 24.5 34.5L 11.5 41L 11.5 56.5L 56.5 56.5L 56.5 44.5L 36.5 44.5ZM 30.5 49.5C 30.5 48.395432 29.60457 47.5 28.5 47.5L 22.5 47.5C 21.395432 47.5 20.5 48.395432 20.5 49.5L 20.5 56.5L 30.5 56.5ZM 40.5 50.5L 42.5 50.5M 48.5 50.5L 50.5 50.5M 43.5 32L 53.5 32L 53.5 44.5L 43.5 44.5ZM 51.452 20.534L 53.5 32L 43.5 32L 45.548 20.529999M 43.5 16.5C 43.5 19.261425 45.738575 21.5 48.5 21.5C 51.261425 21.5 53.5 19.261425 53.5 16.5C 53.5 13.738577 51.261425 11.5 48.5 11.5C 45.738575 11.5 43.5 13.738577 43.5 16.5M 48.5 14.5C 47.395432 14.5 46.5 15.395431 46.5 16.5C 46.5 17.604568 47.395432 18.5 48.5 18.5C 49.604568 18.5 50.5 17.604568 50.5 16.5C 50.5 15.395431 49.604568 14.5 48.5 14.5ZM 20 11.5L 26 11.5L 26 21.5L 20 21.5ZM 43.5 16.5L 26 16.5M 20 18.386C 19.549908 18.372864 19.108849 18.514002 18.75 18.785999L 13.75 22.785999C 13.305872 23.141502 13.034153 23.669319 13.002851 24.237347C 12.971548 24.80537 13.183624 25.359848 13.586 25.762001L 16.586 28.761999C 17.079231 29.315325 17.838041 29.550474 18.557735 29.37303C 19.277428 29.195583 19.839958 28.634645 20.01944 27.915459C 20.198925 27.19627 19.965925 26.436798 19.414 25.942001L 18 24.521999L 21.256001 21.922001C 21.390535 21.798771 21.506416 21.656612 21.599998 21.5M 24.4 21.5C 24.496346 21.655161 24.614182 21.795891 24.75 21.917999L 28 24.521999L 26.58 25.942001C 25.798935 26.724564 25.800213 27.992155 26.582857 28.773142C 27.365499 29.554127 28.633091 29.552721 29.414 28.769999L 32.414001 25.77C 32.814323 25.36801 33.025093 24.814917 32.993813 24.248455C 32.962532 23.681995 32.692154 23.15547 32.25 22.799999L 27.25 18.799999C 26.892998 18.523001 26.451769 18.376865 26 18.386"></path></g></g></g><g id="g-root-tx__91i3li1unlhc2-stroke" data-item-order="0" transform="translate(530, 494)"></g><g id="g-root-tx__v9ukdy1unlgct-stroke" data-item-order="0" transform="translate(62, 530)"></g><g id="g-root-tx__1hgblx21unlh4z-stroke" data-item-order="0" transform="translate(530, 530)"></g></g></g></svg>