<?xml version="1.0" encoding="utf-8" standalone="yes"?>
<!DOCTYPE svg PUBLIC "-//W3C//DTD SVG 1.1//EN" "http://www.w3.org/Graphics/SVG/1.1/DTD/svg11.dtd">
<svg style="fill:none;stroke:none;fill-rule:evenodd;clip-rule:evenodd;stroke-linecap:round;stroke-linejoin:round;stroke-miterlimit:1.5;" version="1.1" xmlns="http://www.w3.org/2000/svg" xmlns:xlink="http://www.w3.org/1999/xlink" width="798" height="612" viewBox="0 0 798 612"><style class="text-font-style fontImports" data-font-family="Roboto">@import url(https://fonts.googleapis.com/css2?family=Roboto:wght@400;700&amp;amp;display=block);</style><g id="items" style="isolation: isolate"><g id="blend" style="mix-blend-mode: normal"><g id="g-root-cp_0_g-0_zjg56e1ng1nnr-fill" data-item-order="-386990" transform="translate(356, 296)"><g id="cp_0_g-0_zjg56e1ng1nnr-fill-merged" stroke="none" fill="#4f92ff" fill-opacity="1"><g><path d="M10 58C10 31.49 31.49 10 58 10C84.51 10 106 31.49 106 58C106 84.51 84.51 106 58 106C31.49 106 10 84.51 10 58"></path></g></g></g><g id="g-root-cp_1_g-1_zjg56e1ng1nns-fill" data-item-order="-386983" transform="translate(326, 266)"></g><g id="g-root-cp_1_g-1_1_v3mn1y1ng1og1-fill" data-item-order="-386980" transform="translate(460, 218)"><g id="cp_1_g-1_1_v3mn1y1ng1og1-fill-merged" stroke="none" fill="#4f92ff" fill-opacity="1"><g><path d="M59 10C78.882 10 95 26.118 95 46C95 65.882 78.882 82 59 82C52.067 82 45.593 80.04 40.099 76.645L25.745 79.255L28.355 64.901C24.96 59.408 23 52.933 23 46C23 26.118 39.118 10 59 10 M22 89C22 92.314 19.314 95 16 95C12.686 95 10 92.314 10 89C10 85.686 12.686 83 16 83C19.314 83 22 85.686 22 89"></path></g></g></g><g id="g-root-cp_2_g-2_v3mn1y1ng1og2-fill" data-item-order="-386975" transform="translate(290, 230)"></g><g id="g-root-cp_2_g-2_1_m8m3w61ng1m2z-fill" data-item-order="-386972" transform="translate(487, 409)"><g id="cp_2_g-2_1_m8m3w61ng1m2z-fill-merged" stroke="none" fill="#4f92ff" fill-opacity="1"><g><path d="M59 95C78.882 95 95 78.882 95 59C95 39.118 78.882 23 59 23C52.067 23 45.593 24.959 40.099 28.355L25.745 25.745L28.355 40.099C24.96 45.592 23 52.067 23 59C23 78.882 39.118 95 59 95 M22 16C22 19.314 19.314 22 16 22C12.686 22 10 19.314 10 16C10 12.686 12.686 10 16 10C19.314 10 22 12.686 22 16"></path></g></g></g><g id="g-root-cp_3_g-3_m8m3w61ng1m30-fill" data-item-order="-386967" transform="translate(255, 194)"></g><g id="g-root-cp_3_g-3_1_hsslrq1ng1mv9-fill" data-item-order="-386964" transform="translate(206, 429)"><g id="cp_3_g-3_1_hsslrq1ng1mv9-fill-merged" stroke="none" fill="#4f92ff" fill-opacity="1"><g><path d="M10 58C10 77.882 26.118 94 46 94C65.882 94 82 77.882 82 58C82 51.067 80.04 44.593 76.645 39.099L79.255 24.745L64.901 27.355C59.407 23.959 52.933 22 46 22C26.118 22 10 38.118 10 58 M95 16C95 19.314 92.314 22 89 22C85.686 22 83 19.314 83 16C83 12.686 85.686 10 89 10C92.314 10 95 12.686 95 16"></path></g></g></g><g id="g-root-cp_4_g-4_hsslrq1ng1mva-fill" data-item-order="-386959" transform="translate(218, 158)"></g><g id="g-root-cp_4_g-4_1_hsslrq1ng1mvb-fill" data-item-order="-386956" transform="translate(207, 122)"><g id="cp_4_g-4_1_hsslrq1ng1mvb-fill-merged" stroke="none" fill="#4f92ff" fill-opacity="1"><g><path d="M10 46C10 26.118 26.118 10 46 10C65.882 10 82 26.118 82 46C82 52.932 80.04 59.407 76.645 64.901L79.255 79.255L64.901 76.645C59.408 80.04 52.933 82 46 82C26.118 82 10 65.882 10 46 M94 89C94 92.314 91.314 95 88 95C84.686 95 82 92.314 82 89C82 85.686 84.686 83 88 83C91.314 83 94 85.686 94 89"></path></g></g></g><g id="g-root-tx_bu_18kpid21nfw2dd-fill" data-item-order="0" transform="translate(596, 224)"><g id="tx_bu_18kpid21nfw2dd-fill-merged" stroke="none" fill="#4f92ff" fill-opacity="1"><g><text style="font: bold 20px Roboto, sans-serif; white-space: pre;" transform="translate(10, 22)" font-weight="bold" font-size="20px" font-family="Roboto, sans-serif"><tspan x="2" y="12" dominant-baseline="ideographic">各产品线BU</tspan></text></g></g></g><g id="g-root-tx__7rfau1nfw1kw-fill" data-item-order="0" transform="translate(38, 170)"><g id="tx__7rfau1nfw1kw-fill-merged" stroke="none" fill="#4f92ff" fill-opacity="1"><g><text style="font: 15px Roboto, sans-serif; white-space: pre;" transform="translate(154, 22)" font-size="15px" font-family="Roboto, sans-serif"><tspan x="-137" y="9" dominant-baseline="ideographic">提供技术援助和支持</tspan></text></g></g></g><g id="g-root-tx_1_1d0j0hi1nfw1l4-fill" data-item-order="0" transform="translate(497, 242)"><g id="tx_1_1d0j0hi1nfw1l4-fill-merged" stroke="none" fill="#ffffff" fill-opacity="1"><g><text style="font: 20px Roboto, sans-serif; white-space: pre;" transform="translate(22, 22)" font-size="20px" font-family="Roboto, sans-serif"><tspan x="-5.63" y="12" dominant-baseline="ideographic">1</tspan></text></g></g></g><g id="g-root-tx__zpoz7a1nfw00a-fill" data-item-order="0" transform="translate(596, 260)"><g id="tx__zpoz7a1nfw00a-fill-merged" stroke="none" fill="#4f92ff" fill-opacity="1"><g><text style="font: 15px Roboto, sans-serif; white-space: pre;" transform="translate(10, 28)" font-size="15px" font-family="Roboto, sans-serif"><tspan x="2" y="0" dominant-baseline="ideographic">代表不同产品线的业</tspan><tspan x="2" y="18" dominant-baseline="ideographic">务部门</tspan></text></g></g></g><g id="g-root-tx_4_1ur6jw61nfw2dp-fill" data-item-order="0" transform="translate(230, 146)"><g id="tx_4_1ur6jw61nfw2dp-fill-merged" stroke="none" fill="#ffffff" fill-opacity="1"><g><text style="font: 20px Roboto, sans-serif; white-space: pre;" transform="translate(22, 22)" font-size="20px" font-family="Roboto, sans-serif"><tspan x="-5.63" y="12" dominant-baseline="ideographic">4</tspan></text></g></g></g><g id="g-root-ic_tech_4hc3ee1ng1og9-fill" data-item-order="0" transform="translate(380, 320)"></g><g id="g-root-tx__me8gty1nfw1l8-fill" data-item-order="0" transform="translate(596, 470)"><g id="tx__me8gty1nfw1l8-fill-merged" stroke="none" fill="#4f92ff" fill-opacity="1"><g><text style="font: 15px Roboto, sans-serif; white-space: pre;" transform="translate(10, 22)" font-size="15px" font-family="Roboto, sans-serif"><tspan x="2" y="9" dominant-baseline="ideographic">负责创新和产品开发</tspan></text></g></g></g><g id="g-root-tx__dcz3na1ng1nnk-fill" data-item-order="0" transform="translate(311, 38)"><g id="tx__dcz3na1ng1nnk-fill-merged" stroke="none" fill="#4f92ff" fill-opacity="1"><g><text style="font: bold 25px Roboto, sans-serif; white-space: pre;" transform="translate(88, 28)" font-weight="bold" font-size="25px" font-family="Roboto, sans-serif"><tspan x="-75" y="15" dominant-baseline="ideographic">项目团队结构</tspan></text></g></g></g><g id="g-root-tx__hyeypi1nfw2dh-fill" data-item-order="0" transform="translate(50, 440)"><g id="tx__hyeypi1nfw2dh-fill-merged" stroke="none" fill="#4f92ff" fill-opacity="1"><g><text style="font: bold 20px Roboto, sans-serif; white-space: pre;" transform="translate(142, 22)" font-weight="bold" font-size="20px" font-family="Roboto, sans-serif"><tspan x="-122" y="12" dominant-baseline="ideographic">土耳其区销售</tspan></text></g></g></g><g id="g-root-tx_2_1hgcily1nfw0sv-fill" data-item-order="0" transform="translate(524, 446)"><g id="tx_2_1hgcily1nfw0sv-fill-merged" stroke="none" fill="#ffffff" fill-opacity="1"><g><text style="font: 20px Roboto, sans-serif; white-space: pre;" transform="translate(22, 22)" font-size="20px" font-family="Roboto, sans-serif"><tspan x="-5.63" y="12" dominant-baseline="ideographic">2</tspan></text></g></g></g><g id="g-root-tx__v9vh2u1nfw0sj-fill" data-item-order="0" transform="translate(596, 434)"><g id="tx__v9vh2u1nfw0sj-fill-merged" stroke="none" fill="#4f92ff" fill-opacity="1"><g><text style="font: bold 20px Roboto, sans-serif; white-space: pre;" transform="translate(10, 22)" font-weight="bold" font-size="20px" font-family="Roboto, sans-serif"><tspan x="2" y="12" dominant-baseline="ideographic">研发</tspan></text></g></g></g><g id="g-root-tx_3_1qbziuu1nfw006-fill" data-item-order="0" transform="translate(230, 465)"><g id="tx_3_1qbziuu1nfw006-fill-merged" stroke="none" fill="#ffffff" fill-opacity="1"><g><text style="font: 20px Roboto, sans-serif; white-space: pre;" transform="translate(22, 22)" font-size="20px" font-family="Roboto, sans-serif"><tspan x="-5.63" y="12" dominant-baseline="ideographic">3</tspan></text></g></g></g><g id="g-root-tx__93efjq1nfw00e-fill" data-item-order="0" transform="translate(38, 476)"><g id="tx__93efjq1nfw00e-fill-merged" stroke="none" fill="#4f92ff" fill-opacity="1"><g><text style="font: 15px Roboto, sans-serif; white-space: pre;" transform="translate(154, 28)" font-size="15px" font-family="Roboto, sans-serif"><tspan x="-137" y="0" dominant-baseline="ideographic">专注于土耳其市场的</tspan><tspan x="-62" y="18" dominant-baseline="ideographic">销售活动</tspan></text></g></g></g><g id="g-root-tx__4nkxfa1nfw0sn-fill" data-item-order="0" transform="translate(98, 134)"><g id="tx__4nkxfa1nfw0sn-fill-merged" stroke="none" fill="#4f92ff" fill-opacity="1"><g><text style="font: bold 20px Roboto, sans-serif; white-space: pre;" transform="translate(94, 22)" font-weight="bold" font-size="20px" font-family="Roboto, sans-serif"><tspan x="-82" y="12" dominant-baseline="ideographic">技术支持</tspan></text></g></g></g><g id="g-root-cp_0_g-0_zjg56e1ng1nnr-stroke" data-item-order="-386990" transform="translate(356, 296)"><g id="cp_0_g-0_zjg56e1ng1nnr-stroke" fill="none" stroke-linecap="round" stroke-linejoin="round" stroke-miterlimit="4" stroke="#ffffff" stroke-width="1" stroke-opacity="1"><g><path d="M 10 58C 10 31.4903 31.4903 10 58 10C 84.5097 10 106 31.4903 106 58C 106 84.5097 84.5097 106 58 106C 31.4903 106 10 84.5097 10 58Z"></path></g></g></g><g id="g-root-cp_1_g-1_zjg56e1ng1nns-stroke" data-item-order="-386983" transform="translate(326, 266)"><g id="cp_1_g-1_zjg56e1ng1nns-stroke" fill="none" stroke-linecap="round" stroke-linejoin="round" stroke-miterlimit="4" stroke="#4f92ff" stroke-width="1" stroke-opacity="1"><g><path d="M 144.8803 37.4823C 145.3312 36.9998 145.8621 36.5926 146.452 36.2818C 143.0165 32.4042 139.1851 28.8593 135.0034 25.7103C 122.6028 16.3718 107.6878 10.94 92.1711 10.1113C 76.6543 9.2826 61.243 13.0948 47.9132 21.0591C 34.5834 29.0234 23.9427 40.7768 17.3554 54.8122C 10.7682 68.8476 8.5346 84.5253 10.9412 99.8351M 151.9326 46.7602C 152.5254 46.4544 153.0599 46.0518 153.5148 45.5733C 156.9279 50.8414 159.7076 56.5295 161.7719 62.525C 166.8185 77.1817 167.3604 93.0076 163.3281 107.9735C 159.2958 122.9394 150.8732 136.3632 139.1401 146.5235C 127.4071 156.6838 112.8984 163.1176 97.4745 165"></path></g></g></g><g id="g-root-cp_1_g-1_1_v3mn1y1ng1og1-stroke" data-item-order="-386980" transform="translate(460, 218)"><g id="cp_1_g-1_1_v3mn1y1ng1og1-stroke" fill="none" stroke-linecap="round" stroke-linejoin="round" stroke-miterlimit="4" stroke="#ffffff" stroke-width="1" stroke-opacity="1"><g><path d="M 59 10C 78.8822 10 95 26.1177 95 46C 95 65.8822 78.8823 82 59 82C 52.0674 82 45.5926 80.0404 40.0991 76.645L 25.7453 79.2548L 28.3551 64.901C 24.9596 59.4075 23 52.9326 23 46C 23 26.1178 39.1177 10 59 10ZM 22 89C 22 92.3137 19.3137 95 16 95C 12.6863 95 10 92.3137 10 89C 10 85.6863 12.6863 83 16 83C 19.3137 83 22 85.6863 22 89Z"></path></g></g></g><g id="g-root-cp_2_g-2_v3mn1y1ng1og2-stroke" data-item-order="-386975" transform="translate(290, 230)"><g id="cp_2_g-2_v3mn1y1ng1og2-stroke" fill="none" stroke-linecap="round" stroke-linejoin="round" stroke-miterlimit="4" stroke="#4f92ff" stroke-width="1" stroke-opacity="1"><g><path d="M 136.8086 10.705C 114.1701 8.1788 91.2928 12.4763 71.1201 23.0446C 50.9473 33.613 34.4022 49.9686 23.6134 70.007C 12.8246 90.0454 8.2858 112.8499 10.5809 135.4863C 12.8761 158.1226 21.9002 179.5552 36.4922 197.0263C 51.0841 214.4975 70.5764 227.2079 92.4609 233.522C 114.3453 239.8362 137.6208 239.4654 159.2925 232.4572C 178.7335 226.1703 196.0859 214.8003 209.5779 199.5847M 216.9027 190.414C 229.2173 173.2543 236.5379 152.9866 238 131.8626"></path></g></g></g><g id="g-root-cp_2_g-2_1_m8m3w61ng1m2z-stroke" data-item-order="-386972" transform="translate(487, 409)"><g id="cp_2_g-2_1_m8m3w61ng1m2z-stroke" fill="none" stroke-linecap="round" stroke-linejoin="round" stroke-miterlimit="4" stroke="#ffffff" stroke-width="1" stroke-opacity="1"><g><path d="M 59 95C 78.8822 95 95 78.8823 95 59C 95 39.1177 78.8822 23 59 23C 52.0674 23 45.5926 24.9595 40.0991 28.355L 25.7453 25.7452L 28.3551 40.099C 24.9596 45.5925 23 52.0674 23 59C 23 78.8823 39.1178 95 59 95ZM 22 16C 22 19.3137 19.3137 22 16 22C 12.6863 22 10 19.3137 10 16C 10 12.6863 12.6863 10 16 10C 19.3137 10 22 12.6863 22 16Z"></path></g></g></g><g id="g-root-cp_3_g-3_m8m3w61ng1m30-stroke" data-item-order="-386967" transform="translate(255, 194)"><g id="cp_3_g-3_m8m3w61ng1m30-stroke" fill="none" stroke-linecap="round" stroke-linejoin="round" stroke-miterlimit="4" stroke="#4f92ff" stroke-width="1" stroke-opacity="1"><g><path d="M 246.8687 38.5155C 224.6011 22.3877 198.2434 12.6336 170.6493 10.4623C 138.2409 7.9123 105.8811 15.9598 78.4424 33.3931M 292.3921 91.6243C 298.5195 103.5885 303.0493 116.3964 305.7965 129.7291C 312.3569 161.5688 308.396 194.6781 294.5101 224.0717C 292.265 228.8241 289.7802 233.4377 287.0702 237.8973M 254.6112 275.4819C 246.6722 282.063 238.0317 287.8444 228.8043 292.7062C 200.0437 307.8599 167.1385 313.2599 135.0432 308.0933C 102.9478 302.9267 73.3996 287.4731 50.8474 264.0592C 48.2696 261.3829 45.7992 258.6192 43.4394 255.7748M 36.2071 246.3173C 22.075 226.2324 13.0201 202.8804 10 178.2722"></path></g></g></g><g id="g-root-cp_3_g-3_1_hsslrq1ng1mv9-stroke" data-item-order="-386964" transform="translate(206, 429)"><g id="cp_3_g-3_1_hsslrq1ng1mv9-stroke" fill="none" stroke-linecap="round" stroke-linejoin="round" stroke-miterlimit="4" stroke="#ffffff" stroke-width="1" stroke-opacity="1"><g><path d="M 10 58C 10 77.8823 26.1177 94 46 94C 65.8822 94 82 77.8823 82 58C 82 51.0674 80.0404 44.5926 76.645 39.0991L 79.2547 24.7452L 64.9009 27.355C 59.4074 23.9595 52.9326 22 46 22C 26.1177 22 10 38.1177 10 58ZM 95 16C 95 19.3137 92.3137 22 89 22C 85.6863 22 83 19.3137 83 16C 83 12.6863 85.6863 10 89 10C 92.3137 10 95 12.6863 95 16Z"></path></g></g></g><g id="g-root-cp_4_g-4_hsslrq1ng1mva-stroke" data-item-order="-386959" transform="translate(218, 158)"><g id="cp_4_g-4_hsslrq1ng1mva-stroke" fill="none" stroke-linecap="round" stroke-linejoin="round" stroke-miterlimit="4" stroke="#4f92ff" stroke-width="1" stroke-opacity="1"><g><path d="M 81.6646 49.3238C 91.6197 41.5652 102.3913 34.7983 113.8375 29.1606C 148.8874 11.8972 188.485 6.0974 227.0174 12.5835C 265.5498 19.0695 301.062 37.5123 328.5201 65.2976C 355.9783 93.0828 373.9892 128.8009 380 167.3886M 72.5807 56.8789C 56.0776 71.5154 42.21 89.0568 31.7377 108.7664C 13.4116 143.2576 6.4129 182.6386 11.7337 221.3274C 15.2772 247.0931 24.1649 271.6811 37.6696 293.5827M 70.4927 333.2411C 96.0543 356.6108 127.708 372.4464 161.9279 378.8361C 200.3384 386.0083 240.0333 380.9157 275.3858 364.2801"></path></g></g></g><g id="g-root-cp_4_g-4_1_hsslrq1ng1mvb-stroke" data-item-order="-386956" transform="translate(207, 122)"><g id="cp_4_g-4_1_hsslrq1ng1mvb-stroke" fill="none" stroke-linecap="round" stroke-linejoin="round" stroke-miterlimit="4" stroke="#ffffff" stroke-width="1" stroke-opacity="1"><g><path d="M 10 46C 10 26.1178 26.1177 10 46 10C 65.8822 10 82 26.1178 82 46C 82 52.9325 80.0404 59.4074 76.645 64.9009L 79.2548 79.2547L 64.901 76.6449C 59.4075 80.0404 52.9326 82 46 82C 26.1178 82 10 65.8823 10 46ZM 94 89C 94 92.3137 91.3137 95 88 95C 84.6863 95 82 92.3137 82 89C 82 85.6863 84.6863 83 88 83C 91.3137 83 94 85.6863 94 89Z"></path></g></g></g><g id="g-root-tx_bu_18kpid21nfw2dd-stroke" data-item-order="0" transform="translate(596, 224)"></g><g id="g-root-tx__7rfau1nfw1kw-stroke" data-item-order="0" transform="translate(38, 170)"></g><g id="g-root-tx_1_1d0j0hi1nfw1l4-stroke" data-item-order="0" transform="translate(497, 242)"></g><g id="g-root-tx__zpoz7a1nfw00a-stroke" data-item-order="0" transform="translate(596, 260)"></g><g id="g-root-tx_4_1ur6jw61nfw2dp-stroke" data-item-order="0" transform="translate(230, 146)"></g><g id="g-root-ic_tech_4hc3ee1ng1og9-stroke" data-item-order="0" transform="translate(380, 320)"><g id="ic_tech_4hc3ee1ng1og9-stroke" fill="none" stroke-linecap="round" stroke-linejoin="round" stroke-miterlimit="4" stroke="#ffffff" stroke-width="1" stroke-opacity="1"><g><path d="M 21 49L 47 49C 47 49 49 49 49 51L 49 55C 49 55 49 57 47 57L 21 57C 21 57 19 57 19 55L 19 51C 19 51 19 49 21 49M 23 49L 23 43M 45 49L 45 43M 23 53L 25 53M 29 53L 31 53M 34 22.5C 34.276142 22.5 34.5 22.723858 34.5 23C 34.5 23.276142 34.276142 23.5 34 23.5C 33.723858 23.5 33.5 23.276142 33.5 23C 33.5 22.723858 33.723858 22.5 34 22.5M 31 11L 37 11C 37 11 39 11 39 13L 39 25C 39 25 39 27 37 27L 31 27C 31 27 29 27 29 25L 29 13C 29 13 29 11 31 11M 47 17L 53 17C 54.104568 17 55 17.895432 55 19L 55 25L 55 25L 45 25L 45 25L 45 19C 45 17.895432 45.895432 17 47 17ZM 55.382 31C 55.942566 30.999235 56.462902 30.708723 56.757694 30.231926C 57.052486 29.755129 57.079834 29.159817 56.829998 28.657999L 55 25L 45 25L 43.169998 28.658001C 42.920166 29.159817 42.947514 29.755129 43.242306 30.231926C 43.537098 30.708723 44.05743 30.999235 44.618 31ZM 13 17L 23 17C 23 17 25 17 25 19L 25 25C 25 25 25 27 23 27L 13 27C 13 27 11 27 11 25L 11 19C 11 19 11 17 13 17M 13 31L 23 31M 15 31L 16 27M 21 31L 20 27M 41.209999 37.183998C 36.843815 34.273853 31.156187 34.273853 26.790001 37.184002M 39 41.512001C 35.977043 39.496872 32.038956 39.496872 29.016001 41.512001"></path></g></g></g><g id="g-root-tx__me8gty1nfw1l8-stroke" data-item-order="0" transform="translate(596, 470)"></g><g id="g-root-tx__dcz3na1ng1nnk-stroke" data-item-order="0" transform="translate(311, 38)"></g><g id="g-root-tx__hyeypi1nfw2dh-stroke" data-item-order="0" transform="translate(50, 440)"></g><g id="g-root-tx_2_1hgcily1nfw0sv-stroke" data-item-order="0" transform="translate(524, 446)"></g><g id="g-root-tx__v9vh2u1nfw0sj-stroke" data-item-order="0" transform="translate(596, 434)"></g><g id="g-root-tx_3_1qbziuu1nfw006-stroke" data-item-order="0" transform="translate(230, 465)"></g><g id="g-root-tx__93efjq1nfw00e-stroke" data-item-order="0" transform="translate(38, 476)"></g><g id="g-root-tx__4nkxfa1nfw0sn-stroke" data-item-order="0" transform="translate(98, 134)"></g></g></g><path id="wqns1827ar11f" d="M65.283 12.757a.35.35 0 0 0 .584.157l5.203-5.141-6.183 3.523.396 1.461zm-2.216-11.7a.35.35 0 0 0-.522.305v3.111l3.276-1.868-2.754-1.548zm3.728 2.105l-4.25 2.421v2.445l6.391-3.644-2.141-1.222zm4.708 3.303a.35.35 0 0 0 0-.609l-1.592-.9-7.365 4.199v1.782a.35.35 0 0 0 .523.305l8.435-4.777z M44.542 2.513c0-.433.355-.783.792-.783s.792.35.792.783-.355.783-.792.783-.792-.35-.792-.783zm59.171 0c0-.433.355-.783.792-.783s.792.35.792.783-.355.783-.792.783-.792-.35-.792-.783zm-85.951 7.636h-1.27v-.487c-.276.201-.864.609-1.881.609-1.202 0-2.274-.794-2.137-2.078.118-1.106 1.153-1.584 1.848-1.727l2.17-.345c0-.539-.29-.956-1.064-1.006s-1.21.305-1.571 1.017l-1.124-.605c1.218-2.631 5.029-1.764 5.029.414v4.207zm-1.27-2.86c.006.396-.062 1.112-.819 1.59-.587.37-1.841.299-1.903-.395-.049-.555.461-.791.906-.898l1.816-.297zm72.662 2.86h-1.27v-.487c-.276.201-.864.609-1.881.609-1.202 0-2.274-.794-2.137-2.078.118-1.106 1.153-1.584 1.848-1.727l2.17-.345c0-.539-.29-.956-1.064-1.006s-1.21.305-1.571 1.017l-1.124-.605c1.218-2.631 5.029-1.764 5.029.414v4.207zm-1.27-2.86c.006.396-.062 1.112-.82 1.59-.587.37-1.841.299-1.903-.395-.049-.555.461-.791.906-.898l1.816-.297zM99.096 10.149H97.85v-8.45h1.246v4.895l2.68-2.559h1.738l-2.633 2.535 2.715 3.578h-1.556l-2.077-2.707-.867.844v1.863zm6.053-6.114h-1.255v6.113h1.255V4.035zm-59.2 0h-1.255v6.113h1.255V4.035zm5.584 6.113V1.697h1.255v2.695c.361-.346 1-.485 1.47-.485 1.452 0 2.477 1.082 2.457 2.448v3.792h-1.27v-3.68c0-.408-.214-1.339-1.315-1.339-.968 0-1.342.756-1.342 1.339v3.681h-1.255zm-4.76-4.894V4.039h.621a.45.45 0 0 0 .45-.45v-.855h1.251v1.305h1.309v1.215h-1.309v3.109c0 .293.105.664.648.664.365 0 .531-.035.736-.07v1.137s-.361.113-.857.113c-1.398 0-1.777-1.051-1.777-1.788V5.254h-1.071zM36.528 4.039h-1.394l2.191 6.106h1.125l1.234-3.918 1.238 3.918h1.129l2.188-6.106h-1.383l-1.359 3.93-1.256-3.93h-1.124l-1.242 3.957-1.348-3.957zM26.212 7.141c-.02 1.566 1.187 3.129 3.223 3.129 1.566 0 2.383-.918 2.734-1.719L31.172 8c-.315.399-.801 1.094-1.738 1.094-1.145 0-1.825-.781-1.891-1.52h4.625c.074-.284.148-.995-.03-1.559-.336-1.064-1.221-2.102-2.839-2.102s-3.088 1.152-3.088 3.227zm1.363-.75h3.348c-.055-.43-.566-1.301-1.623-1.301a1.79 1.79 0 0 0-1.725 1.301zm-8.758.75c.038 1.758 1.277 3.133 3.145 3.133 1.074 0 1.723-.477 1.961-.672v.547h1.242V1.703h-1.258v2.888c-.414-.36-1.062-.68-1.93-.68-1.91 0-3.198 1.473-3.16 3.23zm1.309-.08c0 1.119.723 1.978 1.836 1.978a1.88 1.88 0 0 0 1.94-1.904c0-1.371-1.011-1.99-1.972-1.99s-1.805.798-1.805 1.916zm76.683-.028C96.771 5.275 95.532 3.9 93.664 3.9c-1.074 0-1.723.477-1.961.672v-.547h-1.242v8.22h1.258V9.583c.414.36 1.063.68 1.93.68 1.91 0 3.198-1.473 3.16-3.23zm-1.309.08c0-1.119-.723-1.978-1.836-1.978a1.88 1.88 0 0 0-1.94 1.904c0 1.371 1.011 1.99 1.972 1.99S95.5 8.231 95.5 7.113zM106.441 10.173V4.036h1.254v.382c.361-.346 1-.485 1.47-.485 1.452 0 2.477 1.082 2.457 2.448v3.792h-1.27V6.492c0-.408-.214-1.339-1.315-1.339-.969 0-1.342.756-1.342 1.339v3.681h-1.254zm-30.383-.021V1.824h1.084l4.215 5.777V1.824h1.32v8.328h-1.094l-4.207-5.796v5.796h-1.319zM5.24 10.149H4V2.377h1.014l2.664 3.597 2.654-3.592h1.03v7.766h-1.256V4.762L7.678 8.068 5.24 4.742v5.407z" transform="translate(662, 578)" fill="#80808088" stroke="none"></path></svg>