<?xml version="1.0" encoding="utf-8" standalone="yes"?>
<!DOCTYPE svg PUBLIC "-//W3C//DTD SVG 1.1//EN" "http://www.w3.org/Graphics/SVG/1.1/DTD/svg11.dtd">
<svg style="fill:none;stroke:none;fill-rule:evenodd;clip-rule:evenodd;stroke-linecap:round;stroke-linejoin:round;stroke-miterlimit:1.5;" version="1.1" xmlns="http://www.w3.org/2000/svg" xmlns:xlink="http://www.w3.org/1999/xlink" width="552" height="612" viewBox="0 0 552 612"><style class="text-font-style fontImports" data-font-family="Roboto">@import url(https://fonts.googleapis.com/css2?family=Roboto:wght@400;700&amp;amp;display=block);</style><g id="items" style="isolation: isolate"><g id="blend" style="mix-blend-mode: normal"><g id="g-root-sy_3_cu_1cwrq521mbns3x-fill" data-item-order="999999529" transform="translate(452, 236)"></g><g id="g-root-tx__v5hpna1mbnuh4-fill" data-item-order="1000000000" transform="translate(98, 158)"><g id="tx__v5hpna1mbnuh4-fill-merged" stroke="none" fill="#4f92ff" fill-opacity="1"><g><text style="font: bold 20px Roboto, sans-serif; white-space: pre;" transform="translate(76, 22)" font-weight="bold" font-size="20px" font-family="Roboto, sans-serif"><tspan x="-60" y="12" dominant-baseline="ideographic">提升品牌形象</tspan></text></g></g></g><g id="g-root-ic_48px_4j75zq1mbnuh9-fill" data-item-order="1000000000" transform="translate(416, 164)"></g><g id="g-root-tx__zlb7rq1mbntov-fill" data-item-order="1000000000" transform="translate(62, 194)"><g id="tx__zlb7rq1mbntov-fill-merged" stroke="none" fill="#4f92ff" fill-opacity="1"><g><text style="font: 15px Roboto, sans-serif; white-space: pre;" transform="translate(112, 22)" font-size="15px" font-family="Roboto, sans-serif"><tspan x="-97.5" y="9" dominant-baseline="ideographic">通过合规性增强品牌信任度。</tspan></text></g></g></g><g id="g-root-tx__qqaoly1mbns3m-fill" data-item-order="1000000000" transform="translate(98, 314)"><g id="tx__qqaoly1mbns3m-fill-merged" stroke="none" fill="#4f92ff" fill-opacity="1"><g><text style="font: bold 20px Roboto, sans-serif; white-space: pre;" transform="translate(76, 22)" font-weight="bold" font-size="20px" font-family="Roboto, sans-serif"><tspan x="-60" y="12" dominant-baseline="ideographic">获得竞争优势</tspan></text></g></g></g><g id="g-root-ic_48px_qn6b6e1mbw8p0-fill" data-item-order="1000000000" transform="translate(416, 320)"></g><g id="g-root-tx__qqaoly1mbns3l-fill" data-item-order="1000000000" transform="translate(62, 350)"><g id="tx__qqaoly1mbns3l-fill-merged" stroke="none" fill="#4f92ff" fill-opacity="1"><g><text style="font: 15px Roboto, sans-serif; white-space: pre;" transform="translate(112, 28)" font-size="15px" font-family="Roboto, sans-serif"><tspan x="-97.5" y="0" dominant-baseline="ideographic">率先满足标准有助于抢占市场</tspan><tspan x="-15" y="18" dominant-baseline="ideographic">份额</tspan></text></g></g></g><g id="g-root-tx__deu68m1mbntok-fill" data-item-order="1000000000" transform="translate(122, 470)"><g id="tx__deu68m1mbntok-fill-merged" stroke="none" fill="#4f92ff" fill-opacity="1"><g><text style="font: bold 20px Roboto, sans-serif; white-space: pre;" transform="translate(52, 22)" font-weight="bold" font-size="20px" font-family="Roboto, sans-serif"><tspan x="-40" y="12" dominant-baseline="ideographic">符合标准</tspan></text></g></g></g><g id="g-root-ic_48px_1hegniu1mbxnur-fill" data-item-order="1000000000" transform="translate(416, 476)"></g><g id="g-root-tx__hunod21mbnswb-fill" data-item-order="1000000000" transform="translate(56, 506)"><g id="tx__hunod21mbnswb-fill-merged" stroke="none" fill="#4f92ff" fill-opacity="1"><g><text style="font: 15px Roboto, sans-serif; white-space: pre;" transform="translate(118, 28)" font-size="15px" font-family="Roboto, sans-serif"><tspan x="-105" y="0" dominant-baseline="ideographic">符合标准是产品进入土耳其市场</tspan><tspan x="-37.5" y="18" dominant-baseline="ideographic">的前提条件</tspan></text></g></g></g><g id="g-root-sy_3_cu_1cwrq521mbns3x-stroke" data-item-order="999999529" transform="translate(452, 236)"><g id="sy_3_cu_1cwrq521mbns3x-stroke" fill="none" stroke-linecap="round" stroke-linejoin="round" stroke-miterlimit="4" stroke="#4f92ff" stroke-width="1" stroke-dasharray="2.5, 3.5" stroke-opacity="1"><g><path d="M 10 165.9995L 10 249.9995M 10 10L 10 94"></path></g></g></g><g id="g-root-tx__v5hpna1mbnuh4-stroke" data-item-order="1000000000" transform="translate(98, 158)"></g><g id="g-root-ic_48px_4j75zq1mbnuh9-stroke" data-item-order="1000000000" transform="translate(416, 164)"><g id="ic_48px_4j75zq1mbnuh9-stroke" fill="none" stroke-linecap="round" stroke-linejoin="round" stroke-miterlimit="4" stroke="#4f92ff" stroke-width="1" stroke-opacity="1"><g><path d="M 52.429451 41.960514C 52.5145 41.629314 52.596848 41.290768 52.674099 40.94474C 54.077202 34.998402 55.1017 27.317152 53.382099 20.906172L 38.615051 20.906172C 36.895302 27.319601 37.919952 34.998402 39.323051 40.94474C 39.402851 41.290768 39.485199 41.626865 39.567551 41.960514C 39.64735 42.281776 39.729851 42.600594 39.80965 42.909618L 52.1824 42.909618C 52.264751 42.600594 52.347099 42.281776 52.424351 41.960514L 52.429451 41.960514ZM 45.998501 34.526367C 43.251701 34.526367 41.024803 32.388546 41.024803 29.751472C 41.024803 27.114546 43.251701 24.976721 45.998501 24.976721C 48.745449 24.976721 50.972351 27.114546 50.972351 29.751472C 50.972351 32.388546 48.745449 34.526367 45.998501 34.526367ZM 45.997749 24.976578C 43.250801 24.976578 41.023899 27.114401 41.023899 29.751472C 41.023899 32.388401 43.250801 34.526226 45.997749 34.526226C 48.744698 34.526226 50.9716 32.388401 50.9716 29.751472C 50.9716 27.114401 48.744698 24.976578 45.997749 24.976578ZM 46.02145 28.311905C 45.192398 28.311905 44.52055 28.956448 44.52055 29.751905C 44.52055 30.547216 45.192398 31.191906 46.02145 31.191906C 46.850498 31.191906 47.52235 30.547216 47.52235 29.751905C 47.52235 28.956448 46.850498 28.311905 46.02145 28.311905ZM 33.973598 45.763985L 33.973598 50.617939L 42.296799 50.617939C 42.296799 50.617939 42.235001 50.464722 42.124302 50.175571C 41.7355 49.159794 40.752098 46.468288 39.8125 42.909473C 39.00415 44.068531 37.243149 45.808483 33.973598 45.763985ZM 33.97345 43.19632L 28.160351 43.19632L 28.160351 50.618084L 31.066898 50.618084L 33.97345 50.618084L 33.97345 45.76413L 33.97345 43.19632ZM 33.97345 39.466431C 33.97345 37.924335 32.673401 36.676147 31.066898 36.676147C 29.460548 36.676147 28.160351 37.924335 28.160351 39.466431L 28.160351 39.963234L 33.97345 39.963234L 33.97345 39.466431ZM 28.160351 50.618084L 29.04085 53.294754L 31.066898 53.294754L 33.092949 53.294754L 33.97345 50.618084L 31.066898 50.618084L 28.160351 50.618084ZM 33.97345 39.963375L 28.160351 39.963375L 28.160351 43.198483L 33.97345 43.198483L 33.97345 39.963375ZM 42.62635 51.344849L 41.9338 53.527168C 41.841251 53.821217 42.070297 54.115265 42.386948 54.115265L 49.610802 54.115265C 49.93 54.115265 50.159203 53.818771 50.06395 53.527168L 49.371399 51.344849L 42.62635 51.344849ZM 58.026402 45.76413L 58.026402 50.618084L 60.932949 50.618084L 63.8395 50.618084L 63.8395 43.19632L 58.026402 43.19632L 58.026402 45.76413ZM 60.932949 36.676147C 59.32645 36.676147 58.026402 37.924335 58.026402 39.466431L 58.026402 39.963234L 63.8395 39.963234L 63.8395 39.466431C 63.8395 37.924335 62.539299 36.676147 60.932949 36.676147ZM 58.026402 50.618084L 58.90675 53.294754L 60.932949 53.294754L 62.959 53.294754L 63.8395 50.618084L 60.932949 50.618084L 58.026402 50.618084ZM 63.8395 39.963375L 58.026402 39.963375L 58.026402 43.198483L 63.8395 43.198483L 63.8395 39.963375ZM 47.708199 12.91767C 46.780449 12.272925 45.226151 12.297708 44.294502 12.91767C 41.321049 14.94532 39.5602 17.759151 38.617901 20.910563L 53.384949 20.910563C 52.445202 17.759151 50.681648 14.94532 47.708199 12.91767ZM 58.026253 45.763985L 58.026253 50.617939L 49.703201 50.617939C 49.703201 50.617939 49.764847 50.464722 49.875549 50.175571C 50.264351 49.159794 51.247749 46.468288 52.1875 42.909473C 52.99585 44.068531 54.756699 45.808483 58.026253 45.763985ZM 45.998199 42.909473L 39.811752 42.909473C 40.751499 46.468288 41.734901 49.159794 42.12355 50.175571C 42.234249 50.462128 42.296051 50.61549 42.296051 50.61549L 45.998199 50.61549L 49.700203 50.61549C 49.700203 50.61549 49.762001 50.462128 49.8727 50.175571C 50.261353 49.159794 51.2449 46.468288 52.184498 42.909473L 45.998199 42.909473ZM 52.186897 60.559265C 52.186897 65.270515 49.007351 79.642723 46.183151 79.642723C 43.358948 79.642723 40.179401 65.270515 40.179401 60.559265C 40.179401 55.848019 42.370148 54.667076 46.183151 54.667076C 49.9963 54.667076 52.186897 55.848019 52.186897 60.559265ZM 49.183899 58.066483C 49.183899 60.784481 47.5942 69.076149 46.182102 69.076149C 44.77 69.076149 43.180149 60.784481 43.180149 58.066483C 43.180149 55.348484 44.2756 54.667076 46.182102 54.667076C 48.0886 54.667076 49.183899 55.348484 49.183899 58.066483Z"></path></g></g></g><g id="g-root-tx__zlb7rq1mbntov-stroke" data-item-order="1000000000" transform="translate(62, 194)"></g><g id="g-root-tx__qqaoly1mbns3m-stroke" data-item-order="1000000000" transform="translate(98, 314)"></g><g id="g-root-ic_48px_qn6b6e1mbw8p0-stroke" data-item-order="1000000000" transform="translate(416, 320)"><g id="ic_48px_qn6b6e1mbw8p0-stroke" fill="none" stroke-linecap="round" stroke-linejoin="round" stroke-miterlimit="4" stroke="#4f92ff" stroke-width="1" stroke-opacity="1"><g><path d="M 57.586601 41.862099C 57.586601 48.260948 52.3993 53.44825 46.00045 53.44825C 39.601452 53.44825 34.41415 48.260948 34.41415 41.862099C 34.41415 35.463249 39.601452 30.275801 46.00045 30.275801C 52.3993 30.275801 57.586601 35.463249 57.586601 41.862099ZM 45.970749 22C 35.017899 22 26.13895 30.858101 26.13895 41.785301C 26.13895 56.261497 46.00045 70 46.00045 70C 46.00045 70 65.861946 56.261497 65.861946 41.785301C 65.861946 30.858101 56.983002 22 46.029999 22L 45.970749 22Z"></path></g></g></g><g id="g-root-tx__qqaoly1mbns3l-stroke" data-item-order="1000000000" transform="translate(62, 350)"></g><g id="g-root-tx__deu68m1mbntok-stroke" data-item-order="1000000000" transform="translate(122, 470)"></g><g id="g-root-ic_48px_1hegniu1mbxnur-stroke" data-item-order="1000000000" transform="translate(416, 476)"><g id="ic_48px_1hegniu1mbxnur-stroke" fill="none" stroke-linecap="round" stroke-linejoin="round" stroke-miterlimit="4" stroke="#4f92ff" stroke-width="1" stroke-opacity="1"><g><path d="M 57.586601 41.862099C 57.586601 48.260948 52.3993 53.44825 46.00045 53.44825C 39.601452 53.44825 34.41415 48.260948 34.41415 41.862099C 34.41415 35.463249 39.601452 30.275801 46.00045 30.275801C 52.3993 30.275801 57.586601 35.463249 57.586601 41.862099ZM 45.970749 22C 35.017899 22 26.13895 30.858101 26.13895 41.785301C 26.13895 56.261497 46.00045 70 46.00045 70C 46.00045 70 65.861946 56.261497 65.861946 41.785301C 65.861946 30.858101 56.983002 22 46.029999 22L 45.970749 22Z"></path></g></g></g><g id="g-root-tx__hunod21mbnswb-stroke" data-item-order="1000000000" transform="translate(56, 506)"></g></g></g><path id="w1uto1sy6gqvwn" d="M65.283 12.757a.35.35 0 0 0 .584.157l5.203-5.141-6.183 3.523.396 1.461zm-2.216-11.7a.35.35 0 0 0-.522.305v3.111l3.276-1.868-2.754-1.548zm3.728 2.105l-4.25 2.421v2.445l6.391-3.644-2.141-1.222zm4.708 3.303a.35.35 0 0 0 0-.609l-1.592-.9-7.365 4.199v1.782a.35.35 0 0 0 .523.305l8.435-4.777z M44.542 2.513c0-.433.355-.783.792-.783s.792.35.792.783-.355.783-.792.783-.792-.35-.792-.783zm59.171 0c0-.433.355-.783.792-.783s.792.35.792.783-.355.783-.792.783-.792-.35-.792-.783zm-85.951 7.636h-1.27v-.487c-.276.201-.864.609-1.881.609-1.202 0-2.274-.794-2.137-2.078.118-1.106 1.153-1.584 1.848-1.727l2.17-.345c0-.539-.29-.956-1.064-1.006s-1.21.305-1.571 1.017l-1.124-.605c1.218-2.631 5.029-1.764 5.029.414v4.207zm-1.27-2.86c.006.396-.062 1.112-.819 1.59-.587.37-1.841.299-1.903-.395-.049-.555.461-.791.906-.898l1.816-.297zm72.662 2.86h-1.27v-.487c-.276.201-.864.609-1.881.609-1.202 0-2.274-.794-2.137-2.078.118-1.106 1.153-1.584 1.848-1.727l2.17-.345c0-.539-.29-.956-1.064-1.006s-1.21.305-1.571 1.017l-1.124-.605c1.218-2.631 5.029-1.764 5.029.414v4.207zm-1.27-2.86c.006.396-.062 1.112-.82 1.59-.587.37-1.841.299-1.903-.395-.049-.555.461-.791.906-.898l1.816-.297zM99.096 10.149H97.85v-8.45h1.246v4.895l2.68-2.559h1.738l-2.633 2.535 2.715 3.578h-1.556l-2.077-2.707-.867.844v1.863zm6.053-6.114h-1.255v6.113h1.255V4.035zm-59.2 0h-1.255v6.113h1.255V4.035zm5.584 6.113V1.697h1.255v2.695c.361-.346 1-.485 1.47-.485 1.452 0 2.477 1.082 2.457 2.448v3.792h-1.27v-3.68c0-.408-.214-1.339-1.315-1.339-.968 0-1.342.756-1.342 1.339v3.681h-1.255zm-4.76-4.894V4.039h.621a.45.45 0 0 0 .45-.45v-.855h1.251v1.305h1.309v1.215h-1.309v3.109c0 .293.105.664.648.664.365 0 .531-.035.736-.07v1.137s-.361.113-.857.113c-1.398 0-1.777-1.051-1.777-1.788V5.254h-1.071zM36.528 4.039h-1.394l2.191 6.106h1.125l1.234-3.918 1.238 3.918h1.129l2.188-6.106h-1.383l-1.359 3.93-1.256-3.93h-1.124l-1.242 3.957-1.348-3.957zM26.212 7.141c-.02 1.566 1.187 3.129 3.223 3.129 1.566 0 2.383-.918 2.734-1.719L31.172 8c-.315.399-.801 1.094-1.738 1.094-1.145 0-1.825-.781-1.891-1.52h4.625c.074-.284.148-.995-.03-1.559-.336-1.064-1.221-2.102-2.839-2.102s-3.088 1.152-3.088 3.227zm1.363-.75h3.348c-.055-.43-.566-1.301-1.623-1.301a1.79 1.79 0 0 0-1.725 1.301zm-8.758.75c.038 1.758 1.277 3.133 3.145 3.133 1.074 0 1.723-.477 1.961-.672v.547h1.242V1.703h-1.258v2.888c-.414-.36-1.062-.68-1.93-.68-1.91 0-3.198 1.473-3.16 3.23zm1.309-.08c0 1.119.723 1.978 1.836 1.978a1.88 1.88 0 0 0 1.94-1.904c0-1.371-1.011-1.99-1.972-1.99s-1.805.798-1.805 1.916zm76.683-.028C96.771 5.275 95.532 3.9 93.664 3.9c-1.074 0-1.723.477-1.961.672v-.547h-1.242v8.22h1.258V9.583c.414.36 1.063.68 1.93.68 1.91 0 3.198-1.473 3.16-3.23zm-1.309.08c0-1.119-.723-1.978-1.836-1.978a1.88 1.88 0 0 0-1.94 1.904c0 1.371 1.011 1.99 1.972 1.99S95.5 8.231 95.5 7.113zM106.441 10.173V4.036h1.254v.382c.361-.346 1-.485 1.47-.485 1.452 0 2.477 1.082 2.457 2.448v3.792h-1.27V6.492c0-.408-.214-1.339-1.315-1.339-.969 0-1.342.756-1.342 1.339v3.681h-1.254zm-30.383-.021V1.824h1.084l4.215 5.777V1.824h1.32v8.328h-1.094l-4.207-5.796v5.796h-1.319zM5.24 10.149H4V2.377h1.014l2.664 3.597 2.654-3.592h1.03v7.766h-1.256V4.762L7.678 8.068 5.24 4.742v5.407z" transform="translate(416, 578)" fill="#80808088" stroke="none"></path></svg>